<?xml version="1.0" encoding="UTF-8"?>
<svg version="1.1" xmlns="http://www.w3.org/2000/svg" width="250" height="36">
<path d="M0 0 C0.66 0.13664063 1.32 0.27328125 2 0.4140625 C5.14314767 1.92424673 6.25530622 3.32178589 8 6.375 C8.47896996 9.9940494 8.37719873 13.54521337 8.25 17.1875 C8.23195312 18.16654297 8.21390625 19.14558594 8.1953125 20.15429688 C8.14832887 22.56220771 8.08265694 24.96809335 8 27.375 C6.02 27.375 4.04 27.375 2 27.375 C2 25.725 2 24.075 2 22.375 C-0.97 22.375 -3.94 22.375 -7 22.375 C-7 24.025 -7 25.675 -7 27.375 C-9.31 27.375 -11.62 27.375 -14 27.375 C-14.05413245 24.47891407 -14.09373641 21.58384805 -14.125 18.6875 C-14.14175781 17.87087891 -14.15851563 17.05425781 -14.17578125 16.21289062 C-14.22131911 10.5889655 -13.84651863 6.59082236 -10.125 2.125 C-6.8282858 -0.58994111 -4.11497642 -0.94837347 0 0 Z M-7 8.375 C-7.25015873 11.95857241 -7.25015873 11.95857241 -7 15.375 C-4.03 15.375 -1.06 15.375 2 15.375 C2.37233882 11.18631586 2.37233882 11.18631586 0.6875 7.5 C-2.50541448 5.37139035 -3.95634701 6.34589801 -7 8.375 Z " fill="#FEFEFE" transform="translate(155,1.625)"/>
<path d="M0 0 C14.3 0 14.3 0 19 3 C21.49533622 6.35310805 22.24754613 8.9625173 22 13.0625 C21.28384294 17.26288184 19.31783179 19.32955002 16 22 C12.78548731 23.60725635 9.56387464 23.05748185 6 23 C6 24.65 6 26.3 6 28 C4.02 28 2.04 28 0 28 C0 18.76 0 9.52 0 0 Z M6 7 C6 9.97 6 12.94 6 16 C9.37400578 16.41725678 9.37400578 16.41725678 13 16 C15.00864359 13.6273026 15.00864359 13.6273026 16 11 C14.98239527 8.86124923 14.98239527 8.86124923 13 7 C9.37436186 6.66619186 9.37436186 6.66619186 6 7 Z " fill="#FEFEFE" transform="translate(0,1)"/>
<path d="M0 0 C1.98 0 3.96 0 6 0 C6 9.57 6 19.14 6 29 C5.01 29 4.02 29 3 29 C3 28.34 3 27.68 3 27 C2.01 27.66 1.02 28.32 0 29 C-3.06526351 29.54531842 -5.93408329 29.54325893 -9 29 C-11.75569447 26.81840855 -13.43588747 25.12822506 -15 22 C-15.40710593 17.76609838 -15.25575965 15.48411648 -13.25 11.6875 C-9.96359018 7.76206605 -9.96359018 7.76206605 -7 7 C-3.25 7.375 -3.25 7.375 0 8 C0 5.36 0 2.72 0 0 Z M-7 14 C-9.264384 16.69155201 -9.264384 16.69155201 -8.75 19.0625 C-8.07467282 21.19476975 -8.07467282 21.19476975 -6 23 C-3.06546739 22.63318342 -2.13562754 22.13562754 0 20 C-0.28983269 16.69316534 -0.28983269 16.69316534 -2 14 C-4.45792029 13.66656449 -4.45792029 13.66656449 -7 14 Z " fill="#FEFEFE" transform="translate(244,0)"/>
<path d="M0 0 C1.98 0 3.96 0 6 0 C6.33 4.29 6.66 8.58 7 13 C8.65 13.33 10.3 13.66 12 14 C12 9.38 12 4.76 12 0 C13.98 0 15.96 0 18 0 C18.14560195 3.72875388 18.23417043 7.45677434 18.3125 11.1875 C18.35439453 12.24259766 18.39628906 13.29769531 18.43945312 14.38476562 C18.56264461 22.19510563 18.56264461 22.19510563 15.75 26.21875 C11.72930472 28.82306399 9.67622773 28.39629049 5 28 C5.0825 26.9275 5.165 25.855 5.25 24.75 C5.36883176 20.97843912 5.36883176 20.97843912 3.0625 18.6875 C2.381875 18.130625 1.70125 17.57375 1 17 C-0.53266582 13.93466836 -0.10276471 10.73245728 -0.0625 7.375 C-0.05798828 6.66859375 -0.05347656 5.9621875 -0.04882812 5.234375 C-0.03703875 3.48954725 -0.01910324 1.744763 0 0 Z " fill="#FEFEFE" transform="translate(47,8)"/>
<path d="M0 0 C0.99 0 1.98 0 3 0 C3.99 0 4.98 0 6 0 C6 6.93 6 13.86 6 21 C4.35 20.67 2.7 20.34 1 20 C0.34 20.33 -0.32 20.66 -1 21 C-4.08308569 21.47851428 -6.92260124 21.54119771 -10 21 C-13.31317894 18.36298003 -14.59222853 16.89057683 -15.47265625 12.80859375 C-15.74811671 8.63430835 -15.31249316 5.81914029 -12.6875 2.5 C-8.29031903 -1.5904009 -5.66414515 -0.91030904 0 0 Z M-7 6 C-7.66 6.66 -8.32 7.32 -9 8 C-8.67801034 11.09926819 -8.67801034 11.09926819 -8 14 C-6.35 14.33 -4.7 14.66 -3 15 C-2.01 13.68 -1.02 12.36 0 11 C-0.63979849 8.96758273 -0.63979849 8.96758273 -2 7 C-4.45286596 6.00922702 -4.45286596 6.00922702 -7 6 Z " fill="#FEFEFE" transform="translate(201,8)"/>
<path d="M0 0 C0.99 0 1.98 0 3 0 C3.99 0 4.98 0 6 0 C6 6.93 6 13.86 6 21 C5.01 21 4.02 21 3 21 C3 20.34 3 19.68 3 19 C2.01 19.66 1.02 20.32 0 21 C-4.56051995 21.73446576 -8.01911074 21.59262059 -12 19.1875 C-14.61841256 16.32361126 -14.96473004 14.47614448 -15.25 10.625 C-14.97926023 6.69927335 -14.44616236 5.03661534 -12 2 C-7.84746384 -1.4604468 -5.15151304 -1.04938229 0 0 Z M-7 6 C-9.33391203 8.78114056 -9.33391203 8.78114056 -8.625 11.6875 C-8.41875 12.450625 -8.2125 13.21375 -8 14 C-5.65466049 14.76956136 -5.65466049 14.76956136 -3 15 C-1 14 -1 14 0 12 C-0.24205349 8.68181015 -0.24205349 8.68181015 -2 6 C-4.45792029 5.66656449 -4.45792029 5.66656449 -7 6 Z " fill="#FEFEFE" transform="translate(82,8)"/>
<path d="M0 0 C1.98 0 3.96 0 6 0 C6 2.64 6 5.28 6 8 C7.051875 7.896875 8.10375 7.79375 9.1875 7.6875 C13 8 13 8 15.71875 10 C18.72255995 13.95021582 18.59136037 16.51181148 18.3125 21.3125 C18.28994141 22.05306641 18.26738281 22.79363281 18.24414062 23.55664062 C18.1855815 25.37197357 18.09590886 27.18625681 18 29 C16.02 29 14.04 29 12 29 C12 24.38 12 19.76 12 15 C10.35 15.33 8.7 15.66 7 16 C6.67 20.29 6.34 24.58 6 29 C4.02 29 2.04 29 0 29 C0 19.43 0 9.86 0 0 Z " fill="#FEFEFE" transform="translate(110,0)"/>
<path d="M0 0 C1.17046875 0.03609375 2.3409375 0.0721875 3.546875 0.109375 C4.43890625 0.15578125 5.3309375 0.2021875 6.25 0.25 C6.25 3.25 6.25 6.25 6.25 9.25 C6.58 9.58 6.91 9.91 7.25 10.25 C7.71547371 17.46484246 7.71547371 17.46484246 6.21484375 19.99609375 C3.17083601 21.93869113 0.04662859 21.56437303 -3.4375 21.4375 C-4.13939453 21.42396484 -4.84128906 21.41042969 -5.56445312 21.39648438 C-7.29329829 21.36120182 -9.02174765 21.30739583 -10.75 21.25 C-10.75 19.27 -10.75 17.29 -10.75 15.25 C-9.43 14.92 -8.11 14.59 -6.75 14.25 C-7.41 13.71375 -8.07 13.1775 -8.75 12.625 C-10.75 10.25 -10.75 10.25 -11.25 7.25 C-10.14546572 0.62279435 -6.11787192 -0.24471488 0 0 Z " fill="#FEFEFE" transform="translate(100.75,7.75)"/>
<path d="M0 0 C13.35326087 -0.49456522 13.35326087 -0.49456522 16.390625 1.828125 C19.36723037 5.8450973 19.10702545 9.33422608 19.0625 14.1875 C19.05347656 15.45980469 19.04445312 16.73210938 19.03515625 18.04296875 C19.02355469 19.01878906 19.01195312 19.99460937 19 21 C17.02 21 15.04 21 13 21 C12.67 16.71 12.34 12.42 12 8 C10.68 7.67 9.36 7.34 8 7 C6.64908472 9.70183055 6.66141942 12.11808206 6.4375 15.125 C6.35371094 16.22070312 6.26992187 17.31640625 6.18359375 18.4453125 C6.12300781 19.28835937 6.06242188 20.13140625 6 21 C4.02 21 2.04 21 0 21 C0 14.07 0 7.14 0 0 Z " fill="#FEFEFE" transform="translate(209,8)"/>
<path d="M0 0 C12.11116012 -0.61167475 12.11116012 -0.61167475 15.90625 2 C18.66665378 5.95520542 18.58471861 8.62615187 18.3125 13.3125 C18.28994141 14.05306641 18.26738281 14.79363281 18.24414062 15.55664062 C18.1855815 17.37197357 18.09590886 19.18625681 18 21 C16.35 21 14.7 21 13 21 C12.93941406 20.15695313 12.87882813 19.31390625 12.81640625 18.4453125 C12.73261719 17.34960938 12.64882812 16.25390625 12.5625 15.125 C12.48128906 14.03445312 12.40007812 12.94390625 12.31640625 11.8203125 C12.16998297 9.05271029 12.16998297 9.05271029 11 7 C9.68 7.33 8.36 7.66 7 8 C6.67 12.29 6.34 16.58 6 21 C4.02 21 2.04 21 0 21 C0 14.07 0 7.14 0 0 Z " fill="#FEFEFE" transform="translate(166,8)"/>
<path d="M0 0 C1.32 0.33 2.64 0.66 4 1 C4.66 0.67 5.32 0.34 6 0 C8.6723621 -0.13415472 11.32250488 -0.04318541 14 0 C14 2.31 14 4.62 14 7 C11.69 7 9.38 7 7 7 C6.67 11.62 6.34 16.24 6 21 C4.02 21 2.04 21 0 21 C0 14.07 0 7.14 0 0 Z " fill="#FEFEFE" transform="translate(23,8)"/>
<path d="M0 0 C2.5 0.125 2.5 0.125 3.5 1.125 C3.542721 2.79111905 3.54063832 4.45882885 3.5 6.125 C3.5 6.785 3.5 7.445 3.5 8.125 C3.5 15.125 3.5 22.125 3.5 29.125 C1.52 29.125 -0.46 29.125 -2.5 29.125 C-2.49476318 28.4637915 -2.48952637 27.80258301 -2.48413086 27.12133789 C-2.46342344 24.14340149 -2.45035988 21.16548018 -2.4375 18.1875 C-2.42912109 17.14658203 -2.42074219 16.10566406 -2.41210938 15.03320312 C-2.40888672 14.04384766 -2.40566406 13.05449219 -2.40234375 12.03515625 C-2.39710693 11.11871338 -2.39187012 10.20227051 -2.38647461 9.25805664 C-2.26078789 7.14136977 -2.26078789 7.14136977 -3.5 6.125 C-3.625 3.625 -3.625 3.625 -3.5 1.125 C-2.5 0.125 -2.5 0.125 0 0 Z " fill="#FEFEFE" transform="translate(41.5,-0.125)"/>
</svg>
